/* XPM */
static char *result[] = {
/* columns rows colors chars-per-pixel */
"64 64 109 2 ",
"   c #1B631C",
".  c #1A621C",
"X  c #1F7120",
"o  c #238326",
"O  c #238125",
"+  c #1F7421",
"@  c #207522",
"#  c #279029",
"$  c #1C691E",
"%  c #227E24",
"&  c #207622",
"*  c #248627",
"=  c #207722",
"-  c #268E29",
";  c #258927",
":  c #238225",
">  c #278F29",
",  c #258827",
"<  c #258727",
"1  c #1D6B1F",
"2  c #1E7020",
"3  c #227D24",
"4  c #1C671E",
"5  c #27912A",
"6  c #227C24",
"7  c #1D6C1F",
"8  c #1B651D",
"9  c #217B23",
"0  c #258A28",
"q  c #1F7221",
"w  c #238025",
"e  c #1C661D",
"r  c #1D6D1F",
"t  c #1A611C",
"y  c #1E6E20",
"u  c #268B28",
"i  c #1D6A1E",
"p  c #207822",
"a  c #195E1B",
"s  c #217A23",
"d  c #1B641D",
"f  c #1A5F1B",
"g  c #1A601B",
"h  c #1C681E",
"j  c #248426",
"k  c #268C28",
"l  c #1E6F20",
"z  c #248526",
"x  c #1F7321",
"c  c #268D29",
"v  c #227F25",
"b  c #217923",
"n  c #237E24",
"m  c #0C0605",
"M  c #030101",
"N  c #070403",
"B  c #0D0706",
"V  c #261611",
"C  c #DC8864",
"Z  c #F89C6C",
"A  c #B4B4B4",
"S  c #060302",
"D  c #217924",
"F  c #288F2B",
"G  c #1B631F",
"H  c #288B2E",
"J  c #24130F",
"K  c #FCC090",
"L  c gray98",
"P  c #FDFDFD",
"I  c #FFFEFE",
"U  c #FEFEFE",
"Y  c #1A0D0B",
"T  c #040202",
"R  c gray88",
"E  c #232323",
"W  c gray99",
"Q  c #010101",
"!  c black",
"~  c #1D0F0C",
"^  c #202020",
"/  c #1F100D",
"(  c #2D1A15",
")  c #C07054",
"_  c #160C09",
"`  c #080403",
"'  c #0B0504",
"]  c #160C0A",
"[  c #0A0504",
"{  c #100807",
"}  c #140B08",
"|  c #0E0706",
" . c #010000",
".. c #110A08",
"X. c #8E5240",
"o. c #180E0B",
"O. c #321916",
"+. c #E99366",
"@. c #D98662",
"#. c #261410",
"$. c #E9B285",
"%. c #010100",
"&. c #21110E",
"*. c #050202",
"=. c #030201",
"-. c #050302",
";. c #040201",
":. c #0B0505",
">. c #020101",
/* pixels */
"  . . X o O + @ o # $ X % & X O O * $ = - ; % ; * : + + > , < 1 2 > O 3 4 5 < 6 & X 7 , * 4 8 : 8 9 O $ + = * 0 = q - :   X 9 w ",
"3 e , X r * 2 t y 2 8 u 7 * ;   i p > q w a s = < & t 4 8 d 7 @ . t q y 8 * f 2 y 4 a   < o 3 g h + j k + q l z s O % 0 ; * - @ ",
": 5 O $ q e 8 j l e x j c f = y & > , t w < @ $ * p : q @ * u d k g e 5 x @ 0 @ w g % q 4   s x 3 # c : & @ p o p @ v p + > p c ",
"j d h 7 c $ q 4 - . 8 ; e > 3 + j v i x = 4 % : @ 9 r p z k < # o 4 v 5 6 l @   3 o f 6 4 t 6 z * $ h O X < < =   c w 0 c f 8 + ",
"< & o . f j z = k > k e - O p l r # X q 8 e s u x & @ i v @ a X z 7 u x p $ o t + ; O b z X : p y y e o 1 e t & * b s h a 3 v < ",
"x + z j , s e & * k c O z d l 6 7 b z 1 1 v y $ u k t @ q $ + > 3 4 2 2 r o 8 @ > h @ 1 6 1 = l , = f k X s . * : t & x 8 > & * ",
"O p o d 9 O w > , X g < = 9 h w q 8 7 > e o q w v = % q + ; c . p k = & . c & 5 < < 0 O 4 r o a v 1 p 7 i 8 q   = g : l * y f : ",
"0 v + , 7 . 4 9 = o z f a + - * @ z q d 6 y w 4 y r i % O j 6 a b s g o y 7 @ : w - e & % r u 1 9 v g f p # X $ @ t g q ; 7 6 1 ",
"O 3 & l 3 t z $ b f s j c 9 = ; v l 3   i o d z q , X + c 7 g : l = l k 2 l % % h : c v k   * r 6 8 o f * k & X 9 u 8 f , g 3 0 ",
"z r O > . = 9 . . j t h r > y p k u # . O   > - * 7 5 > = l +   # > 9 9 * O > 0 o $ a v x 2 1 > 9 s # $ 5 d e = x x @ q 4 g p 9 ",
"6 h v ; 4 w 7 y f 2 % 1 w = u f h f j c ; p 6 3 d d 0 w 1 + c @ 1 + % : k O i j + 2 b w 8 . @ % z b y e i 2 x % l p   i 2 e : ; ",
"8 1 k l t . k & h y g c j j l x y 9 ; # X j 2 @ u k % x , . s 9 9 k =   k w X g r v r @ w 3 e z q f p h $ r i 7 8 1 : q s 5 b ; ",
"6   4 o . 0 % x O k O i h h 7 o # x * s h 1 h # = v : X q   ; b t 5 p ; d > 7 4   7 q O - z j z   : q c 2 9 1 z 9 o 4 b   X % s ",
": O w t i z # o % r g o X . b l % 1 % @ j 4   , %   a d & . > ; 6 & 8 q + > 4 y 5 # < 3 1 l k , : f h O * g w 4 d x % * 8 x 6 e ",
"e y   9 2 3 q i - v 3 + % f 8 f k 0 & f . s * O h $   j # l < 7 O p % 2 z x l f g r b z c d 0 j , 9 w y > 5 0 $ g g y y c . @ x ",
"+ # w z k q z X z , < d # 8 % o + - l 8 8 < g t u o u k X b 3 c r v 2 k h k % h u * l p , g i 0 b a s i z > 7 - z > v v r   t v ",
"> k > q 3 w > q & d f x o y X 3 @ . % O > 8 p 9 X v b > h $ : - ; @ q f . > 1 g > $ : ; : o o k > j v 7 h c t 9 k q c : e 8 2 1 ",
"9 g h a l u : 8 t k g z 6 , c h ; l j r . k O e 5 g b p 6 = + - % o 0 c 4 b k l s @ 6 k 2 O r q > q . b x   h - . > s   g ; g # ",
"w O a @ z , 8 8 j @ w u @ 1 3 + r % - r - - X v = & $ % g @ @ z y e + ; 9 2 j w ; < a w < $ r y $ * f 4 r 9 k r 0 & a i g - o * ",
"  h 0 f ; . k h l . . . v h * w t 3 $ c p @ p > v r b z i z # 3 1 e 3 b $ + j v O = 2 y :   7 , b w @ # O d c : = t f q y . 3 O ",
"u x v 1 f . 8 c q l o < s > w . i t u r w > % f 8 % t d % , f 8 @ g & O @ u k 2 c v 9 h e 4 % * & p x - q 7 ; = z $ + 6 x # 4 8 ",
"u : o c O h 8 v < j w y # p , x z 6 3 e X f b X 8 g k e - : - : x r 9 6 f @ r X 1 & 4 c w y   i g . ; 3 3 j 5 = f 7 : 2 2 9 * l ",
"g f 3 b . d % $ v . w 1 l : * > 6 9 X * < - b # 1 + < $ < # d 4 d = % j r 7 X 6 c 6 b p v j 8 O , j i h ; % s w 7 + w : t # e $ ",
"O g & = ; = & 0 t =   p * u q d w : w x r 4 0 v b x p k c 4 v p q 0 : l r x ; p x h t 0 % & < 2 3 f p c o ; % l d u x r k z c & ",
"# X e > y s k i $ r @ p p @ 2 ; k v o 3 j . > b 9 6 c 3 2 o t = q f n * f j @ f k 6 w + & & y k y * % f v s = = > 1 x s :   t * ",
"s : z a   i f @ 7 y y 5 z b z > @ s - z x : X 9 7 ; o 0 3   . 9 o 5 m M M M N j 3 0 7 9 . 1 b j y % v t d r , 4 # c c ; g f + > ",
", e > @ v - u f g & s o # : q < p q q = - # h 1 d % x q s z d + B V C Z Z A C m S   q k k u X > X 9 f a q 4 o < o X . = . X k   ",
"q x x z j # = i . l k *   x d 5 v y r 9 c 7 + 3 b @ D F G H p J C Z K K A L P I U Y 0 t q 9 k e b , : y 7 < t , u o d z y u u k ",
"f   f r # 1 : O p c @ y : % - t 1 + o t * t = @ $ O ; w o , o T Z K K K R U E W Q ! b i ; r z h i # + * o 1 v 1 = v * * i % , h ",
"v g h b 9 @ 1 p r 7 * 6 % s . c + 2 9 6 = 9 : z # z z > $ h 2 ~ C K K C Z U ^ W Q / 6 > 4 X - < 4 k - z : < , r @ 7 0 4 f p v 9 ",
", z % 4 , e u % l $ 0 i 7 9 9 w t p 9 t c k w 1 4 % u e u : = j ( K K ) N C C ) N l 4 1 5 x e z 8 r e 0 4 o 7 v d X O ; l 3 s O ",
"O < s u = O - ; b 3   g k 8 k k O 8 # ; 9 5 o x o 0 _ N ` ' ] & S Z K C B ` [ { h 1 @ $ 4 r e > < r 9 . - r x z g u y , 2 f k X ",
"= l b , @ 7 + 3 8 % @ q v & h x c y i   O 9 x 2 o } ) Z Z Z ) Q | C K Z )  .< @ % ; $ # - $ o 1 = a O g . 0 5 o ; d c d O 4 - b ",
"9 l x $ e 7 z d p v x O 4 2 j q . O f f h ; p ; l ..Z K K K Z ) m X.K K Z o.o d +   1 = X X s i r 2 t   9 s q % X i 1 , - k k o ",
"b k k < k 8 6 * b e s i 2 , q z   x s O k 2 s * O.+.K C C Z K K @.#.K K K C S $ s v @ $ 8 g d * @ d - . q v . < y s   # ; # > r ",
"a O h @ 0 e b < = s ; + 9 j O o @ ; o   4 2 y $ ~ $.C ) ) C Z K K K K K K Z %.5 3 w $ x 4 e O X % q 1 + f , 7 O * r 2 # 7 d 5 j ",
"O b d v b 5 7 < # r i c 8 4 % 0 * - k u & < j &.Z Z ) M M *.) C Z K K K Z ) [ d y = > + @ , p X : f < 8 f . r ; . w p ; i d k q ",
"o 9 u < - b 3 l b 0 4 a y o p x 9 e > t l < h =.K C -.+ o d ;.m ) C C ) ) :.$ s : t p u x $ d $ e 0 1 p p & O @ 2 g l x 2 r b 0 ",
"2 h i = r @ t a g   a e s k c - y 6 4 q : = w N >.=.x v r q r + &.=.=.N ! O O x h 3 $ 9 g z i < w X > 1 : 9 + X & x + = a 6 , . ",
"a . c : : 4 * > < j 9 @ i s h r i X w o b . o j c z = e 0 -   + c r 9 w v 0 $ O b t 6 > h e # w * q # j h 2 g 8 p s # l + e ; 8 ",
"q : c x 8 , : 4 = s h x q 0 1 s s d 9 - & 6 = i q = # e f w ; 2 X 6 v 9 c e $ = d t w x + 0 d > * . @ s p g g s &   X ; > & . 1 ",
"  - , > + y # * y w : * X O # 8 0 8 > @ c $ t 4 e + 2   z k 1 # 9 O a i   + & w s 1 * a v t z   ; O - v 4 * a f p ; 6 9 $ g o f ",
"4 < : 1 # $ 6 4 v f r X . d # a x x h 4 p 2 > u 2 i 8 g e q s ; 1 4 - @ . d O x & 9 1 l 2 * = r z i j # j a i s 4 z @ . # 6 b t ",
"% j , - e e > y v 2 y @ u r < @ h u l b u , & 6 & f j k g 9 4 d k - w h i 4 = x 5 % s #   f   7 j   1 k 3 5 1 6 k w b @ # r d t ",
"3 X i w   + 1 9 3 5 ; @ = O s x = < a d w ; b q X 2 ; $ , + # 1 < s b O 8 X & c 3 c r w c O r b - z = 1 a = = 4 1 O O 4 O + % 5 ",
"5 7 + j , % c + t y u e k d g l 7 h 6 h 5 $ l f v @ z b u . y , # 4 * y @ o l b ; b 4 o k $ s   d j p 7 $ # - 0 v x c b 6 3 z X ",
"  . v o v y f ; q r x ; 7 % y , h 4 @ * p < x 7 7 O * v 3 * 9 6 z 4 q X # + O k e t o 7 c k u $ t h > u < @ > 0 8 2 , 0 w 3 - c ",
"e g u   , w e c X c 5 < X * 9 s 6 ; 8 #   h z e # 0 1 : d t 1 h X 9 h & * x % o b 1 j $ @ 8 f 4 b a p w > e s u : 3 + p   t g * ",
"t > @ c   k k * p e @ # x s & - 2 < t q 1 # u 6 z X d s c a 7 = e d # - c % 8 g = ; 3 - g 9 i t h # 9 h q j z + x w % t b f 7 , ",
", a = 4 & . * 6 , & c 9 * w $ & @   u l % j - # 5 4 7 4 # X i , + w y f # s x i > - < x @ b ;   = & d z r X r k @ s h 4 l q   s ",
"h ; $ O u 3 5 b . ; b e 4 y r * 6 X e + y + t p $ = b O > -   1 < 6 # # : w < w r 1 k 5 6 % 2 + ; y y 7 g 6 O < g = $ t > v q 9 ",
"6 O p l h < 4 # X & z 4 $ X 7 < 2 & # g 6 7 0 > < o k * c p b y c k o x X q @ = 1 1 s w x p : z   x X p x 8 s + 0 @ 6 : - # x v ",
"s ; < , z l 5 d u q x ; v c l 3 b i $ v l   ; X 8 z k j x p 2 3 f @ q > w x z < k f 6 * s v 8 b . b h e u : ; < ,   i z : w 5 t ",
"$ d , . < k g # 3 4 : s f e > X 2 @ > 6 w   k X & j i 5 a : 2 ; > r s 2 x h 9 l o i * z w . i y @ 4 8 = q h 4 O 7 6 i u 9 # 9 q ",
"i d 6 < s u r 3 x > u q X @ = f k . > ; & l : 0 p p X 6 i * : . % k b 6 q = 1 8 1 e : % x j 6 O j s x < 3 p k * g 4 q % X X p > ",
"= 6 f j l 2 , v 2 w 1 # a + h c y x e e 3 q w * = 6 8 @ 2 k 9 X u 4 . x X k i % # d @ $ 2 > z - 7 - d + . g l 5 i 3 * o s 9 , k ",
"t r h h * z a z g b d = $ x p u f < O s b ; # s k * u = c e * v 1 5 g b o @ < = + y w > # # z   k 2 7 f < + # + f i d #   $ + . ",
"u r 3 f 6 x z b e > = * # e 9 > X # d x 4 @ % # c , & z l u < $ y $ c y f + 1 4 k h h e i 0 % a . g = y i 8 r 8 6 i - 3 O v q h ",
"e 0 , l = k % y h q $ 2 6 2 1 o 5 6 $ 1 , & t - p p c j 3 ; c 7 = t 0 e x * & t q 1 : h @ X j : 1 l u 2 v =   4 6 1 9 c   k p o ",
", d 8 . y $ 3 j j w ; ,   X q X 8 a ; # + 3 e <   h = 6 g 4 $ w 9 , 2 * o h z t k 9 2 d z c 6 $ 3 f 4 u . w - , % 5 0 & 4 9 @ 3 ",
"4 p l q t k = 7 z h i : l t e , @ 9 l r q : e # z l h z 6 < u O $ k X v 3 O o i g 4 , 8 a % j w v :   u b 2 % % 7 9 # j * r :   ",
"# i f q - * , = 0 g   u & % g * 3 j o @ g 8 u . 4 h X c q & 5 0 9 s i % t t - p g : & 0 h 3 o ; t o 5 i 0 6 6 p g 8 3 + 8 e f 7 ",
". @ k 7 3 % 8 x + g : e 9 k y w . k g - ; @ 9 < q t 4 t - o 3 1 . d i # 4 4 4 z k z l @ g x 1   u g #   @ 7 i > < < & 5 +   j p ",
"u   e g r 5 a x   : x + r w j x 8 j s q 0 @ @ X d l p l b q w b z x @ : 7 q < = h ; q g w 6 h : > v j h d 2 d # i s 3 . > - j O "
};
