/* XPM */
static char *result[] = {
/* columns rows colors chars-per-pixel */
"64 64 174 2 ",
"   c #020304",
".  c #090604",
"X  c #040709",
"o  c #060A0C",
"O  c #0A0C0E",
"+  c #130D09",
"@  c #15110D",
"#  c #1B140E",
"$  c #070D11",
"%  c #0A0E11",
"&  c #0D1114",
"*  c #0B151B",
"=  c #191412",
"-  c #1C1915",
";  c #111519",
":  c #101316",
">  c #0E1921",
",  c #662D0F",
"<  c #682E11",
"1  c #6B3213",
"2  c #6B3A1A",
"3  c #733514",
"4  c #753B16",
"5  c #7B3D16",
"6  c #723718",
"7  c #753D1B",
"8  c #7C3D19",
"9  c #573A20",
"0  c #5D3C26",
"q  c #543F32",
"w  c #6B3F24",
"e  c #6A3F28",
"r  c #673D25",
"t  c #753E20",
"y  c #1A5F1B",
"u  c #1B641D",
"i  c #1D6A1E",
"p  c #1D6423",
"a  c #1E6E20",
"s  c #1F7221",
"d  c #207622",
"f  c #217B23",
"g  c #7C431C",
"h  c #784319",
"j  c #7E5216",
"k  c #5B4632",
"l  c #6B432B",
"z  c #6F482E",
"x  c #70472E",
"c  c #764829",
"v  c #744E31",
"b  c #7F5031",
"n  c #745F4A",
"m  c #7D6147",
"M  c #803F1A",
"N  c #833D14",
"B  c #8B4817",
"V  c #83441B",
"C  c #8A451B",
"Z  c #844A1C",
"A  c #8D4A1D",
"S  c #944411",
"D  c #9E4A13",
"F  c #934B1D",
"G  c #994E1F",
"H  c #984713",
"J  c #87531A",
"K  c #9C531B",
"L  c #9B5A1C",
"P  c #A24E14",
"I  c #A35115",
"U  c #AA5415",
"Y  c #AF5916",
"T  c #A65418",
"R  c #A35B1D",
"E  c #AF5B1D",
"W  c #B15A17",
"Q  c #B95F14",
"!  c #B55C1C",
"~  c #8E6B16",
"^  c #916F18",
"/  c #997D1A",
"(  c #AF651E",
")  c #BB6217",
"_  c #B7631D",
"`  c #BC6519",
"'  c #BB691B",
"]  c #BC761C",
"[  c #884B24",
"{  c #904D21",
"}  c #86522C",
"|  c #955122",
" . c #9B5523",
".. c #9E5B21",
"X. c #985A2C",
"o. c #855933",
"O. c #A35A25",
"+. c #AA5E27",
"@. c #A85D28",
"#. c #BA5822",
"$. c #A25E32",
"%. c #93643B",
"&. c #A66423",
"*. c #AB6327",
"=. c #AB632A",
"-. c #B46524",
";. c #BA6721",
":. c #B26820",
">. c #BC6A21",
",. c #B4652A",
"<. c #BF6029",
"1. c #B36A2B",
"2. c #BB6C2D",
"3. c #B07027",
"4. c #BF7330",
"5. c #C36C1B",
"6. c #C86E1B",
"7. c #C6721C",
"8. c #CC741D",
"9. c #D2761D",
"0. c #D47A1D",
"q. c #DB7D1C",
"w. c #C06C23",
"e. c #CB6B21",
"r. c #CA7320",
"t. c #C3722A",
"y. c #CA752A",
"u. c #D47523",
"i. c #D37921",
"p. c #D97E21",
"a. c #D37C29",
"s. c #C96D30",
"d. c #C17830",
"f. c #CA7C34",
"g. c #C8753A",
"h. c #D17D31",
"j. c #996A41",
"k. c #A87548",
"l. c #C97C43",
"z. c #248426",
"x. c #258927",
"c. c #268D29",
"v. c #279029",
"b. c #AC9819",
"n. c #BF8528",
"m. c #DE811F",
"M. c #D48E1F",
"N. c #E2841E",
"B. c #E7891F",
"V. c #EA8B1F",
"C. c #C4A91E",
"Z. c #C3BA1E",
"A. c #C18E28",
"S. c #DC8225",
"D. c #D78429",
"F. c #D59021",
"G. c #CF8137",
"H. c #CF833B",
"J. c #D48033",
"K. c #DC8535",
"L. c #D18238",
"P. c #E38320",
"I. c #E78A21",
"U. c #EA8B21",
"Y. c #E48D36",
"T. c #E38D3D",
"R. c #D8AF29",
"E. c #C9C41E",
"W. c #D8C621",
"Q. c #EBC132",
"!. c #F2F422",
"~. c #B88451",
"^. c #D3884C",
"/. c #ED9642",
/* pixels */
"u u u s z.z.s s z.v.i s f s s z.z.z.i s v.x.z.x.z.z.s s v.x.x.a a c.z.f a v.z.f s s a x.x.u i z.u s z.i s s c.c.s s c.z.u s s z.",
"f u x.s a x.a u a a u c.a z.x.u i f c.s z.y f s x.s u i u u a s u u s a u z.y s a i y u x.z.s u i s z.c.s s s z.z.z.z.c.c.z.v.s ",
"z.v.z.u s u u x.a u s z.c.y s s s v.x.u f x.d i c.s z.s s x.x.u x.y u v.s s c.s x.u s s p u s s s c.c.z.s s s z.s s z.s s c.s v.",
"x.u i i x.i s u c.u u c.u c.z.s z.z.i s s i f z.s s s s z.c.x.c.z.a f v.f s s p s x.u z.u u z.z.c.i i z.s c.c.s u c.z.z.c.u i s ",
"x.s z.u y z.x.f c.c.c.u v.z.s s i v.s s u i f x.s f s i z.s u s z.a c.s s a z.u s c.z.s z.s z.s a a u z.i u u s x.s s i u z.z.z.",
"s s x.z.z.f u d z.c.c.z.z.u s f i f z.i a f a i c.v.u s s i s c.s a s s s z.u s c.i s i z.a s a c.s u c.s s u z.z.i s s u c.s z.",
"z.f z.u f z.f v.x.s u z.s s i z.s p a c.u z.s f z.s z.s s x.c.u s v.s s u c.s v.z.x.x.z.u a z.y z.a s i a i s u s u z.i x.a u z.",
"x.f s x.i u u f s z.x.u u s c.z.s z.s u f a z.i a i i f z.z.f y z.s u z.a a s z.z.c.u s z.i x.a s z.u u s v.s i s u u s x.a s i ",
"z.s s a z.i z.i f u s x.c.s s v.f s f u i z.u z.s z.s s c.i u z.s s s c.s a s z.u z.c.s c.u x.i z.i z.y x.x.s a z.x.i u z.y s c.",
"x.a z.c.u s s u u z.u u a v.s s c.x.v.u z.u v.c.z.a v.c.s a s u v.c.z.s z.z.v.v.z.i u x.a a a c.s s c.i v.u i s s s s s i u z.s ",
"s s z.x.u z.i s y a f i z.s v.u a u z.v.z.s f z.u u x.z.a s c.s a s z.z.v.z.i z.s a s z.u u s s z.s a i i a s z.a s u i s i z.z.",
"u a x.a y u c.s i a u c.z.z.s s s s x.v.s z.s s c.c.z.s x.u f f s c.s u v.s s u a z.a s z.z.a z.s i s i i a i a i a z.a s v.s x.",
"s u i z.u x.z.s z.c.z.a i u a z.v.s x.f u i a v.s z.z.a s u x.f u v.s c.u v.i u u a a z.c.z.z.z.u z.s x.a s a z.z.x.a s i a z.s ",
"x.z.s u i z.c.z.s i y z.s u s a f i f s z.p u z.z.u y u s p c.x.z.s u s s v.i a v.c.x.z.a a c.x.z.y i z.x.u z.i u s s z.i s s i ",
"u a i s s f s i v.z.f s f u u u c.c.s y u s z.z.u a u z.c.s x.a z.s x.s x.s a u u a s x.c.u x.z.z.z.z.i c.v.x.a y y i a c.u s s ",
"s v.z.c.c.s z.s z.x.x.u v.u f z.s c.s i u c.y u x.z.x.$ % o f c.a s s c.i c.s a x.x.a s x.y a x.s y s i z.c.a c.z.c.z.z.i u i z.",
"v.c.v.s s z.v.s s p u s z.a s s s i s z.v.u s z.s z.X &.&.&.- c.x.s s u u c.i y c.i z.x.f z.z.x.v.z.z.a i x.u s v.s c.z.i u s a ",
"s u u y s v.z.u u c.y z.s x.c.a x.s z.i u v.z.u v.p + U U U + x.f z.x.c.p f c.a f d f c.s z.i d v.s u s s i i x.u v.s u y x.y c.",
"z.z.y s z.z.u u z.s z.x.s a s s a z.c.a v.v.s s s s p . g . d x.s u s x.f a f z.x.x.y f x.i i a i x.u i i s c.a x.s u a u x.z.z.",
"u i x.u x.u x.a a y u u z.a x.z.u s a c.z.s s v.f   + 6 7 8 9 + + @ + @ # = - @ f d a a z.u a x.s z.s c.z.i c.z.s u u s a y z.z.",
"x.s z.a u u u c.s a z.z.s v.z.u i u c.i z.c.z.y   =  ...@.>.7.7.7.7.7.8.f.^.^.^.= f f a u i f x.s s s c.s a x.s x.i s s s v.a u ",
"x.z.z.v.z.u u z.z.z.z.a v.s z.s x.s z.u s y s a @ O.1 V N N U S W U D W P ! e.#.$.: p c.f a u i u i z.z.s z.v.s y a x.a a s z.s ",
"u y z.s u a s a z.u z.s s z.x.v.s z.a x.x.c.s * l { A O.O.7 R ` 5.N.` 9.8.5.P.u.l.c O s z.x.u f x.x.i a c.z.s z.i s z.z.u v.u i ",
"z.y s s x.s s c.u s u s x.c.s u z.z.z.s i i v.X =.4 O.V 2.V 7 0.P V.8.) I.Y q.U.#.~.  x.f d x.d s u s c.x.x.z.a u x.s a c.z.v.s ",
"c.s i v.a s v.i i i s s s s s c.x.z.z.z.z.u O v V C C {  .@.7 L 5.` m.` 9.9.` N.u.l.x   d d a x.a x.z.y z.z.s s v.i s s z.u u x.",
"s z.z.y u i u s i s s v.x.s x.v.s s v.z.s z.  X.3 G M | F 2.M g 9.U I.5.5.B.Y q.P.s.k.; u u d x.a z.s y y a c.i v.c.c.x.u u s c.",
"x.i v.s z.c.x.y u s f z.v.z.s z.s s s s c.  } 3 G +.F C {  .,.1 A 8.W I.Q 9.q.U U.p.g.k X x.d v.a s y y a u z.z.z.a u s u s x.u ",
"s s s z.z.v.s i u s c.x.u s u c.z.s s s c.  } 5 F Z L V A | 2.8 g ] B p.` 6.N.Y q.N.g.j.O f x.u s c.z.a a x.u z.x.x.u x.a c.x.c.",
"u u u a c.i z.z.s c.s s z.f c.u a s z.u   c 5 | 4 E.C.F F V @.,.1 h 2 B a.I r.S.S S.8.l.z   z.u a v.d x.z.i z.i s z.z.x.i z.x.u ",
"s y a s s s s s a a x.s z.s u c.s s z.$ l X.M | h E.C.M { A ..@.5 Z g A *.V O.*.5 4.-.s.%.X v.z.i c.x.x.z.z.z.a s i x.u y s z.z.",
"c.z.z.i c.i c.f a i x.i s s z.z.u s s   7 0 g +.L A.A.O.G t.H.f...H.L.1.2.L.f...L.T.K.J./.= i x.u i u x.u x.u z.u s z.x.i z.s z.",
"z.x.s c.s z.v.x.s z.u u c.u c.c.z.u v.v.o > r 6 5 5 5 4 3 | 1.1.-.J.L.t.t.h.h.-.J.L.y.d.o.X u c.x.i z.u c.a s x.u c.a x.a y c.a ",
"s a f x.s a s f u f s a f d u s c.a a u f % w | F C F C F 5 R _ q.>.w.r.8.;.>.u.>.w.g.%.  u z.i d y z.y u x.v.z.x.u c.u z.u v.s ",
"f a s i u a x.u f z.s z.a a x.s u f y u a o 2 *.3 5 5 < F 5 ' m.m.p.0.5.P D P U P 0.y.o.  s f u i s u u f f s f s i i x.c.c.v.z.",
"f c.c.x.x.p f x.f u f i a x.s z.u s s z.x.% 7 1 < 1.Z.b., , S P I I P W 7.7.5.5.H P g e X u u x.s u c.u s f u x.a f u v.x.v.v.a ",
"y z.i s c.u d x.s f x.s f z.z.z.s x.z.u p X g @.< &.b.~ C 5 5.N.N.N.B.` C.!.F./.y.N.J.g X u z.s f s i s y x.i z.z.a s c.a u v.z.",
"f s i f f v.a x.v.a i c.u u z.x.z.c.c.x.d X t | < Z ^ J 5 3 U ) Q ) Q ] W.!.M.K.E Q +.l * x.f i z.u x.u y u i x.u z.s c.i u c.s ",
"z.f c.x.c.f f a f x.u y a z.d d f i c.u a   q 8 < A b.j 3 1 U ` ` ` ` 7.R.Q.D.D.Y 5.=.z * i u i u x.i d f d z.s s u s s s i s x.",
"s i i s a s u y y u y u f x.c.c.a f a a z.  V ,. .{ [ F O.5 ' q.q.q.q.` _ a.9./.y.q.Y.c $ z.i x.z.s c.i z.f s s s s s s y f c.u ",
"y u c.z.z.u z.c.x.x.f d i f i i a s f z.d X w 8 M M M 8 V 1 H U U U U W 5.7.8.a.T U | 8 & u v.z.z.s v.x.u a u u s s c.s s i x.u ",
"s z.c.s u x.z.u d f u d a x.i f f u f v.s * l A F F F F F 3 _ 0.9.9.9.) ) 7.8.Y.>.9.G.n $ x.u v.z.u s s s u u s s i s c.v.s u i ",
"u c.x.c.s s v.z.d f z.x.a z.v.u x.u v.s v.  l { { { { { { 1 T ' ) ' ' K K ( ( H.1.' 4.m * u z.u x.z.v.z.a z.u u s v.z.s i u z.y ",
"u x.z.a v.i f a z.y i d u u v.y s s p i f s   : & & & $ % O % % O O + O % O O & & & :   s z.s i z.a z.v.z.y a s a z.s i v.s s u ",
"f z.x.c.u u c.a f a a d x.i x.d a x.a s x.x.s f s u z.c.u f u u c.c.z.i i i s s v.z.f v.u u u i z.u a v.s v.a s c.z.s s v.a u u ",
"f s i z.u s a f f c.x.d d z.f d d x.y u z.x.d s s s c.a x.s c.a x.s s z.i s s v.f v.i z.c.z.i f c.z.s s y s s a a z.z.a z.s z.v.",
"v.a s z.x.f c.s u i c.u x.u y a i i f u v.i i y s s x.s x.u a x.v.i z.s s z.s s x.f u z.x.i f u u z.s a a v.v.c.s s c.s z.f z.s ",
"u u f z.f a u x.d i d x.i f a x.i u d x.d x.d i a z.z.z.s c.s z.x.i s d v.s z.c.u u z.i c.c.x.i u i v.c.x.s v.c.i s c.c.z.s c.c.",
"u y c.u x.z.u c.d c.c.x.s x.f f f x.u v.u u x.i c.x.a z.u u i a s s i s x.s f z.f i z.i d u u u s u s z.v.i s c.x.s s s u u u z.",
"u c.s c.u c.c.x.s i d c.s f s c.s x.u s a c.c.f z.s u s v.u a s u u c.c.c.z.u y s x.z.v.u z.i u a v.s a s x.z.s s z.s u s u s x.",
"x.y s i s u x.f x.s c.f x.z.i d s i x.s f z.v.v.v.a a a v.s i z.s z.a u v.s s a v.v.x.s s s z.u s s u x.a s a c.s s i u s s i s ",
"i x.a z.x.f v.f u x.f i u a i x.s s i s s s u s a s s z.v.v.u a x.s v.c.z.z.c.z.s a v.v.s z.s s x.s s a u s z.x.u s i u v.z.s s ",
"f z.s a i x.p v.s d z.u i s i x.s s v.u f a x.c.z.z.c.z.v.s s s v.v.z.s s s s s u a s z.s s z.x.u s s s s i s s v.s z.z.c.v.s z.",
"f x.x.x.z.a v.u x.d s x.f c.a f s a i z.a u z.s u x.x.z.s s s s u s s v.z.s z.x.c.y s x.s z.i s u s p u c.z.x.x.x.i i z.z.z.v.u ",
"i u x.u x.x.u v.f u z.f u u v.s s s c.s z.u c.s s z.a v.u z.s c.c.a s s s a s s z.i x.x.z.u i a s a a s a i i z.i s i x.s v.s s ",
"i u f x.f x.a f d c.x.s s d d u c.u v.c.s s z.x.s s s z.a z.z.u f x.f f s s a a a u z.s s z.s z.z.s s z.s s c.z.u i s z.s s s v.",
"s f u z.a a x.f a z.a c.y s i x.s s u i s s z.x.s z.a s a x.s s c.a u s s x.i s c.a s a s v.x.v.a c.a s i u a v.i s z.z.z.s v.v.",
"u s u i x.z.y x.u d u d i d f x.u x.z.s s v.v.z.c.x.c.s x.p c.s a v.u s z.s x.s s a z.c.v.v.x.u c.a a y x.s v.s u i u v.u a s u ",
"x.i f y f s z.f u c.d x.c.u f c.s v.u s a s s v.c.c.s x.s c.c.a a a c.s u s a i x.i u i i x.s u u u s a i u a u s i c.z.z.s s i ",
"u c.x.a s c.f a i d i a f a i x.v.s i a x.s u c.s s v.x.s c.c.a s u x.p s z.s u s a z.a s s z.z.i a c.s z.s u i z.i s v.u v.s x.",
"x.u u u a i f x.x.f x.x.u s s a u u z.v.s z.u x.u s s s y a s s s c.s z.z.i z.u v.s a u z.v.s a s y u x.u z.v.c.z.v.v.s i z.s s ",
"u f a s u x.f i x.u i z.a u u x.s z.s a s z.i v.x.a i z.z.x.x.z.i v.s x.s z.x.i y u x.u y z.z.z.z.z.u x.s s z.x.s s v.c.z.a z.u ",
"v.i y s x.x.x.s x.u u x.d f y x.s z.z.s u u c.u p i s c.s s v.c.s s i s u u v.s u z.s c.i s z.x.u z.v.i v.s s s u u z.s u i y i ",
"u d c.i f z.u s d y z.u f x.a z.u c.u v.z.s s c.s u u u v.x.s s u i a c.u a a z.x.z.s s y s i u v.u v.u s a i v.x.z.s v.s u z.s ",
"x.u u u i v.y s u z.d d i f z.d i z.s s c.s s s u s s a s s x.s z.s s z.a s z.s a x.s u z.s i z.v.s z.i u s u v.s s s u v.v.z.z."
};
