/* XPM */
static char *result[] = {
/* columns rows colors chars-per-pixel */
"64 64 188 2 ",
"   c #1B631C",
".  c #1A621C",
"X  c #1F7120",
"o  c #238326",
"O  c #238125",
"+  c #1F7421",
"@  c #207522",
"#  c #279029",
"$  c #1C691E",
"%  c #227E24",
"&  c #207622",
"*  c #248627",
"=  c #207722",
"-  c #268E29",
";  c #258927",
":  c #238225",
">  c #278F29",
",  c #258827",
"<  c #258727",
"1  c #1D6B1F",
"2  c #1E7020",
"3  c #227D24",
"4  c #1C671E",
"5  c #27912A",
"6  c #227C24",
"7  c #1D6C1F",
"8  c #1B651D",
"9  c #217B23",
"0  c #258A28",
"q  c #1F7221",
"w  c #238025",
"e  c #1C661D",
"r  c #1D6D1F",
"t  c #1A611C",
"y  c #1E6E20",
"u  c #268B28",
"i  c #1D6A1E",
"p  c #207822",
"a  c #195E1B",
"s  c #217A23",
"d  c #1B641D",
"f  c #1A5F1B",
"g  c #1A601B",
"h  c #1C681E",
"j  c #248426",
"k  c #268C28",
"l  c #1E6F20",
"z  c #248526",
"x  c #1F7321",
"c  c #268D29",
"v  c #227F25",
"b  c #217923",
"n  c #010501",
"m  c black",
"M  c #010201",
"N  c #000200",
"B  c #040F04",
"V  c #010401",
"C  c #030C03",
"Z  c #643028",
"A  c #633128",
"S  c #633329",
"D  c #643228",
"F  c #0A0B05",
"G  c #13170A",
"H  c #846C3C",
"J  c #986840",
"K  c #808080",
"L  c #010301",
"P  c #0E1508",
"I  c #0A0B06",
"U  c #AC8048",
"Y  c #D4B058",
"T  c #C0AC64",
"R  c #A0A0A0",
"E  c #E2E2E2",
"W  c #E7E7E7",
"Q  c #623529",
"!  c #040E04",
"~  c #130908",
"^  c #ECECEC",
"/  c #FDFDFD",
"(  c gray99",
")  c #E9E9E9",
"_  c #EAEAEA",
"`  c gray61",
"'  c #000100",
"]  c #1A5E1B",
"[  c #010000",
"{  c #C09850",
"}  c #EFEFEF",
"|  c #F9F9F9",
" . c #010100",
".. c #FEFEFE",
"X. c #909090",
"o. c #585858",
"O. c #D8D8D8",
"+. c #040202",
"@. c #845038",
"#. c #A08C50",
"$. c #E4E4E4",
"%. c gray44",
"&. c gray3",
"*. c #DBD6D1",
"=. c #040D04",
"-. c #C8C8C8",
";. c #D0D0D0",
":. c #483014",
">. c #377639",
",. c #1F7422",
"<. c #844438",
"1. c #C07054",
"2. c #DC8864",
"3. c #A05C48",
"4. c #53622D",
"5. c #50572A",
"6. c #566730",
"7. c #545F2E",
"8. c #55612F",
"9. c #020602",
"0. c #0F0706",
"q. c #080403",
"w. c #52572C",
"e. c #050202",
"r. c #060803",
"t. c #51592A",
"y. c #020402",
"u. c #050503",
"i. c #051205",
"p. c #090704",
"a. c #050403",
"s. c #030301",
"d. c #070403",
"f. c #154C16",
"g. c #100806",
"h. c #050302",
"j. c #200F0D",
"k. c #165017",
"l. c #140908",
"z. c #020101",
"x. c #1D0E0B",
"c. c #976840",
"v. c #291410",
"b. c #624229",
"n. c #97673F",
"m. c #0E0706",
"M. c #030101",
"N. c #110807",
"B. c #120807",
"V. c #5F4128",
"C. c #865438",
"Z. c #23110E",
"A. c #774332",
"S. c #080804",
"D. c #1D6A1F",
"F. c #060302",
"G. c #4C251F",
"H. c #835038",
"J. c #207421",
"K. c #070303",
"L. c #572A23",
"P. c #0D310E",
"I. c #0D320E",
"U. c #0E0A07",
"Y. c #685232",
"T. c #675131",
"R. c #020702",
"E. c #020802",
"W. c #61552F",
"Q. c #554D29",
"!. c #675931",
"~. c #4A3B23",
"^. c #051305",
"/. c #695733",
"(. c #664C30",
"). c #030C04",
"_. c #674E31",
"`. c #695633",
"'. c #674E30",
"]. c #6A5934",
"[. c #674F31",
"{. c #061606",
"}. c #030A03",
"|. c #051105",
" X c #010502",
".X c #030D04",
"XX c #071907",
"oX c #217C24",
/* pixels */
"  . . X o O + @ o # $ X % & X O O * $ = - ; % ; * : + + > , < 1 2 > O 3 4 5 < 6 & X 7 , * 4 8 : 8 9 O $ + = * 0 = q - :   X 9 w ",
"3 e , X r * 2 t y 2 8 u 7 * ;   i p > q w a s = < & t 4 8 d 7 @ . t q y 8 * f 2 y 4 a   < o 3 g h + j k + q l z s O % 0 ; * - @ ",
": 5 O $ q e 8 j l e x j c f = y & > , t w < @ $ * p : q @ * u d k g e 5 x @ 0 @ w g % q 4   s x 3 # c : & @ p o p @ v p + > p c ",
"j d h 7 c $ q 4 - . 8 ; e > 3 + j v i x = 4 % : @ 9 r p z k < # o 4 v 5 6 l @   3 o f 6 4 t 6 z * $ h O X < < =   c w 0 c f 8 + ",
"< & o . f j z = k > k e - O p l r # X q 8 e s u x & @ i v @ a X z 7 u x p $ o t + ; O b z X : p y y e o 1 e t & * b s h a 3 v < ",
"x + z j , s e & * k c O z d l 6 7 b z 1 1 v y $ u k t @ q $ + > 3 4 2 2 r o 8 @ > h @ 1 6 1 = l , = f k X s . * : t & x 8 > & * ",
"O p o d 9 O w > , X g < = 9 h w q 8 7 > e o q w v = % q + ; c . p k = & . c & 5 < < 0 O 4 r o a v 1 p 7 i 8 q   = g : l * y f : ",
"0 v + , 7 . 4 9 = o z f a + - * @ z q d 6 y w 4 y r i % O j 6 a b s g o y 7 @ : w - e & % r u 1 9 v g f p # X $ @ t g q ; 7 6 1 ",
"O 3 & l 3 t z $ b f s j c 9 = ; v l 3   i o d z q , X + c 7 g : l = l k 2 l % % h : c v k   * r 6 8 o f * k & X 9 u 8 f , g 3 0 ",
"z r O > . = 9 . . j t h r > y p k u # . O   > - * 7 5 > = l +   # > 9 9 * O > 0 o $ a v x 2 1 > 9 s # $ 5 d e = x x @ q 4 g p 9 ",
"6 h v ; 4 w 7 y f 2 % 1 w = u f h f j c ; p 6 3 d d 0 w 1 + c @ 1 + % : k O i j + 2 b w 8 . @ % z b y e i 2 x % l p   i 2 e : ; ",
"8 1 k l t . k & h y g c j j l x y 9 ; # X j 2 @ u k % x , . s 9 9 k =   k w X g r v r @ w 3 e z q f p h $ r i 7 8 1 : q s 5 b ; ",
"6   4 o . 0 % x O k O i h h 7 o # x * s h 1 h # = v : X q   ; b t 5 p ; d > 7 4   7 q O - z j z   : q c 2 9 1 z 9 o 4 b   X % s ",
": O w t i z # o % r g o X . b l % 1 % @ j 4   , %   a d & . > ; 6 & 8 q + > 4 y 5 # < 3 1 l k , : f h O * g w 4 d x % * 8 x 6 e ",
"e y   9 2 3 q i - v 3 + % f 8 f k 0 & f . s * O h $   j # l < 7 O p % 2 z x l f g r b z c d 0 j , 9 w y > 5 0 $ g g y y c . @ x ",
"+ # w z k q z X z , < d # 8 % o + - l 8 8 < g t u o u k n m M N m B m V d k % h u * l p , g i 0 b a s i z > 7 - z > v v r   t v ",
"> k > q 3 w > q & d f x o y X 3 @ . % O > 8 p 9 X v b C Z Z Z Z A Z S D F > 1 g > $ : ; : o o k > j v 7 h c t 9 k q c : e 8 2 1 ",
"9 g h a l u : 8 t k g z 6 , c h ; l j r . k O e 5 g m G H J J H K K J J L P k l s @ 6 k 2 O r q > q . b x   h - . > s   g ; g # ",
"w O a @ z , 8 8 j @ w u @ 1 3 + r % - r - - X v = m I U Y Y T R E W R T R Q ! w ; < a w < $ r y $ * f 4 r 9 k r 0 & a i g - o * ",
"  h 0 f ; . k h l . . . v h * w t 3 $ c p @ p u ~ U Y Y Y T R ^ / ( ) R _ ` ' v O = 2 y :   7 , b w @ # O d c : = t f q y . 3 O ",
"u x v 1 f . 8 c q l o < s > w . i t u r w > % ] [ { Y Y Y T R } / ( ^ | / ` N 2 c v 9 h e 4 % * & p x - q 7 ; = z $ + 6 x # 4 8 ",
"u : o c O h 8 v < j w y # p , x z 6 3 e X f b  .J Y Y Y Y T R ..( X.o.O.o.` ' X 1 & 4 c w y   i g . ; 3 3 j 5 = f 7 : 2 2 9 * l ",
"g f 3 b . d % $ v . w 1 l : * > 6 9 X * < - +.@.{ Y Y { { #.X.$.( %.&.*.&.` =.6 c 6 b p v j 8 O , j i h ; % s w 7 + w : t # e $ ",
"O g & = ; = & 0 t =   p * u q d w : w x r 4 m @.{ Y { { U U U -.;.%.Z ( :.>.m m m m m ,.% & < 2 3 f p c o ; % l d u x r k z c & ",
"# X e > y s k i $ r @ p p @ 2 ; k v o 3 j . +.<.J { U 1.2.2.2.2.2.1.1.1.3.@.4.5.6.7.8.9.& & y k y * % f v s = = > 1 x s :   t * ",
"s : z a   i f @ 7 y y 5 z b z > @ s - z x : 0.q.@.J 1.2.2.2.2.2.2.2.2.2.2.2.2.2.2.1.w.L . 1 b j y % v t d r , 4 # c c ; g f + > ",
", e > @ v - u f g & s o # : q < p q q = - # h 1 e.r.3.1.2.2.2.1.1.1.1.1.1.1.1.3.5.t.n k k u X > X 9 f a q 4 o < o X . = . X k   ",
"q x x z j # = i . l k *   x d 5 v y r 9 c 7 + 3 b @ y.3.1.1.1.1.1.3.3.3.3.3.@.u.B m i.t q 9 k e b , : y 7 < t , u o d z y u u k ",
"f   f r # 1 : O p c @ y : % - t 1 + o t * t = @ $ O p.<.3.3.1.1.U 3.3.@.<.a.s.6 % c b i ; r z h i # + * o 1 v 1 = v * * i % , h ",
"v g h b 9 @ 1 p r 7 * 6 % s . c + 2 9 6 = 9 : z # z 3 s.@.U { { { U J @.d.f.= b o 7 6 > 4 X - < 4 k - z : < , r @ 7 0 4 f p v 9 ",
", z % 4 , e u % l $ 0 i 7 9 9 w t p 9 t c g.h.j.k.l.j.J { Y Y { { { U J J z.[ m c l 4 1 5 x e z 8 r e 0 4 o 7 v d X O ; l 3 s O ",
"O < s u = O - ; b 3   g k 8 k k O 8 # ; x.J U J  .c.U { Y Y Y Y Y { { { { J { J z.1 @ $ 4 r e > < r 9 . - r x z g u y , 2 f k X ",
"= l b , @ 7 + 3 8 % @ q v & h x c y i v.b.{ U @.J { Y Y Y Y Y Y Y Y { { { U { U n.m.$ # - $ o 1 = a O g . 0 5 o ; d c d O 4 - b ",
"9 l x $ e 7 z d p v x O 4 2 j q . O f d.{ { U J { Y Y Y Y Y Y Y Y Y Y { { { U { J +.1 = X X s i r 2 t   9 s q % X i 1 , - k k o ",
"b k k < k 8 6 * b e s i 2 , q z   x s z.{ { U U Y Y Y Y Y Y Y Y Y Y Y { { { U { J +.@ $ 8 g d * @ d - . q v . < y s   # ; # > r ",
"a O h @ 0 e b < = s ; + 9 j O o @ ; o M.{ U U { Y Y Y Y Y Y Y Y Y Y Y { { { U U J N.$ x 4 e O X % q 1 + f , 7 O * r 2 # 7 d 5 j ",
"O b d v b 5 7 < # r i c 8 4 % 0 * - k z.{ U U { Y Y Y Y Y Y Y Y Y { { { { { U J Z = > + @ , p X : f < 8 f . r ; . w p ; i d k q ",
"o 9 u < - b 3 l b 0 4 a y o p x 9 e > B.V.U U { { Y Y Y Y Y Y { { { { { { { U @.[ t p u x $ d $ e 0 1 p p & O @ 2 g l x 2 r b 0 ",
"2 h i = r @ t a g   a e s k c - y 6 4 q Z C.U U { { { { { { { U U U { { { U J <.~ 3 $ 9 g z i < w X > 1 : 9 + X & x + = a 6 , . ",
"a . c : : 4 * > < j 9 @ i s h r i X w o Z.A.J U { { { { { U U U J U { { U U @.S.D.t 6 > h e # w * q # j h 2 g 8 p s # l + e ; 8 ",
"q : c x 8 , : 4 = s h x q 0 1 s s d 9 - M.<.@.J U { U U J J J J U U U U J @.F.= d t w x + 0 d > * . @ s p g g s &   X ; > & . 1 ",
"  - , > + y # * y w : * X O # 8 0 8 > @ c l.[ G.H.J @.@.<.Z Z @.J J J J @.Z ' w s 1 * a v t z   ; O - v 4 * a f p ; 6 9 $ g o f ",
"4 < : 1 # $ 6 4 v f r X . d # a x x h 4 p 2 > J.K.L.Z Z <.3.3.Z 3.3.3.1.1.P.I.M 8 9 1 l 2 * = r z i j # j a i s 4 z @ . # 6 b t ",
"% j , - e e > y v 2 y @ u r < @ h u l b u , y V L U.@.3.1.1.@.<.<.@.3.1.3.3.Y.T.R.f s #   f   7 j   1 k 3 5 1 6 k w b @ # r d t ",
"3 X i w   + 1 9 3 5 ; @ = O s x = < a d w f E.W.3.3.3.1.2.2.1.1.1.3.3.1.1.1.1.3.Q.V r w c O r b - z = 1 a = = 4 1 O O 4 O + % 5 ",
"5 7 + j , % c + t y u e k d g l 7 h 6 h q R.!.3.3.1.1.1.2.2.2.2.2.1.3.@.1.2.2.1.3.~.V o k $ s   d j p 7 $ # - 0 v x c b 6 3 z X ",
"  . v o v y f ; q r x ; 7 % y , h 4 @ * ^./.3.1.1.1.1.1.1.2.2.2.2.2.1.<.3.1.2.2.1.(.L 7 c k u $ t h > u < @ > 0 8 2 , 0 w 3 - c ",
"e g u   , w e c X c 5 < X * 9 s 6 ; 8 # )._.`.'.].3.3.3.3.3.3.3.3.3.3.Y.3.3.3.3.3.[.{.8 @ 8 f 4 b a p w > e s u : 3 + p   t g * ",
"t > @ c   k k * p e @ # x s & - 2 < t q }.|. XV n ' '  XR.n 9.R.R.' L N M ' ' ' ' .XXXoXg 9 i t h # 9 h q j z + x w % t b f 7 , ",
", a = 4 & . * 6 , & c 9 * w $ & @   u l % j - # 5 4 7 4 # X i , + w y f # s x i > - < x @ b ;   = & d z r X r k @ s h 4 l q   s ",
"h ; $ O u 3 5 b . ; b e 4 y r * 6 X e + y + t p $ = b O > -   1 < 6 # # : w < w r 1 k 5 6 % 2 + ; y y 7 g 6 O < g = $ t > v q 9 ",
"6 O p l h < 4 # X & z 4 $ X 7 < 2 & # g 6 7 0 > < o k * c p b y c k o x X q @ = 1 1 s w x p : z   x X p x 8 s + 0 @ 6 : - # x v ",
"s ; < , z l 5 d u q x ; v c l 3 b i $ v l   ; X 8 z k j x p 2 3 f @ q > w x z < k f 6 * s v 8 b . b h e u : ; < ,   i z : w 5 t ",
"$ d , . < k g # 3 4 : s f e > X 2 @ > 6 w   k X & j i 5 a : 2 ; > r s 2 x h 9 l o i * z w . i y @ 4 8 = q h 4 O 7 6 i u 9 # 9 q ",
"i d 6 < s u r 3 x > u q X @ = f k . > ; & l : 0 p p X 6 i * : . % k b 6 q = 1 8 1 e : % x j 6 O j s x < 3 p k * g 4 q % X X p > ",
"= 6 f j l 2 , v 2 w 1 # a + h c y x e e 3 q w * = 6 8 @ 2 k 9 X u 4 . x X k i % # d @ $ 2 > z - 7 - d + . g l 5 i 3 * o s 9 , k ",
"t r h h * z a z g b d = $ x p u f < O s b ; # s k * u = c e * v 1 5 g b o @ < = + y w > # # z   k 2 7 f < + # + f i d #   $ + . ",
"u r 3 f 6 x z b e > = * # e 9 > X # d x 4 @ % # c , & z l u < $ y $ c y f + 1 4 k h h e i 0 % a . g = y i 8 r 8 6 i - 3 O v q h ",
"e 0 , l = k % y h q $ 2 6 2 1 o 5 6 $ 1 , & t - p p c j 3 ; c 7 = t 0 e x * & t q 1 : h @ X j : 1 l u 2 v =   4 6 1 9 c   k p o ",
", d 8 . y $ 3 j j w ; ,   X q X 8 a ; # + 3 e <   h = 6 g 4 $ w 9 , 2 * o h z t k 9 2 d z c 6 $ 3 f 4 u . w - , % 5 0 & 4 9 @ 3 ",
"4 p l q t k = 7 z h i : l t e , @ 9 l r q : e # z l h z 6 < u O $ k X v 3 O o i g 4 , 8 a % j w v :   u b 2 % % 7 9 # j * r :   ",
"# i f q - * , = 0 g   u & % g * 3 j o @ g 8 u . 4 h X c q & 5 0 9 s i % t t - p g : & 0 h 3 o ; t o 5 i 0 6 6 p g 8 3 + 8 e f 7 ",
". @ k 7 3 % 8 x + g : e 9 k y w . k g - ; @ 9 < q t 4 t - o 3 1 . d i # 4 4 4 z k z l @ g x 1   u g #   @ 7 i > < < & 5 +   j p ",
"u   e g r 5 a x   : x + r w j x 8 j s q 0 @ @ X d l p l b q w b z x @ : 7 q < = h ; q g w 6 h : > v j h d 2 d # i s 3 . > - j O "
};
