/* XPM */
static char *result[] = {
/* columns rows colors chars-per-pixel */
"64 64 59 1 ",
"  c #1B631C",
". c #1A621C",
"X c #1F7120",
"o c #238326",
"O c #238125",
"+ c #1F7421",
"@ c #207522",
"# c #279029",
"$ c #1C691E",
"% c #227E24",
"& c #207622",
"* c #248627",
"= c #207722",
"- c #268E29",
"; c #258927",
": c #238225",
"> c #278F29",
", c #258827",
"< c #258727",
"1 c #1D6B1F",
"2 c #1E7020",
"3 c #227D24",
"4 c #1C671E",
"5 c #27912A",
"6 c #227C24",
"7 c #1D6C1F",
"8 c #1B651D",
"9 c #217B23",
"0 c #258A28",
"q c #1F7221",
"w c #238025",
"e c #1C661D",
"r c #1D6D1F",
"t c #1A611C",
"y c #1E6E20",
"u c #268B28",
"i c #1D6A1E",
"p c #207822",
"a c #195E1B",
"s c #217A23",
"d c #1B641D",
"f c #1A5F1B",
"g c #1A601B",
"h c #1C681E",
"j c #248426",
"k c #268C28",
"l c #1E6F20",
"z c #248526",
"x c #1F7321",
"c c #268D29",
"v c #227F25",
"b c #242030",
"n c #585450",
"m c #746C60",
"M c #8C8870",
"N c #A8A080",
"B c #C0BC90",
"V c #217923",
"C c #403840",
/* pixels */
" ..XoO+@o#$X%&XOO*$=-;%;*:++>,<12>O345<6&X7,*48:89O$+=*0=q-: X9w",
"3e,Xr*2ty28u7*; ip>qwas=<&t48d7@.tqy8*f2y4a <o3gh+jk+qlzsO%0;*-@",
":5O$qe8jlexjcf=y&>,tw<@$*p:q@*udkge5x@0@wg%q4 sx3#c:&@pop@vp+>pc",
"jdh7c$q4-.8;e>3+jvix=4%:@9rpzk<#o4v56l@ 3of64t6z*$hOX<<= cw0cf8+",
"<&obbbbbbbbbbbbbbbbbbesbbbbbbbbbbbbbbbbbb;Obbbbbbbbbbbbbbbbbb3v<",
"x+bnmmMMMMMmmmMMmmmmnbbnmmMMMMMmmmMMmmmmnbbnmmMMMMMmmmMMmmmmnb&*",
"OpbmNBBBBNNNNNNNNNNMmbbmNBBBBNNNNNNNNNNMmbbmNBBBBNNNNNNNNNNMmbf:",
"0vbmNBBBBNNNBBBNNNMmmbbmNBBBBNNNBBBNNNMmmbbmNBBBBNNNBBBNNNMmmb61",
"O3bmMNNNNNNNBBBNNNMmmbbmMNNNNNNNBBBNNNMmmbbmMNNNNNNNBBBNNNMmmb30",
"zrbMMNNNNNNNBBBNNNMmnbbMMNNNNNNNBBBNNNMmnbbMMNNNNNNNBBBNNNMmnbp9",
"6hbmMNNNNMMMNNMMMMmmmbbmMNNNNMMMNNMMMMmmmbbmMNNNNMMMNNMMMMmmmb:;",
"81bmMMMMNNMMNNNNNMmmnbbmMMMMNNMMNNNNNMmmnbbmMMMMNNMMNNNNNMmmnbV;",
"6 bmMMMMNNMMMMMMMMMmnbbmMMMMNNMMMMMMMMMmnbbmMMMMNNMMMMMMMMMmnb%s",
":ObmMMmmMMMmmMMMMMMmmbbmMMmmMMMmmMMMMMMmmbbmMMmmMMMmmMMMMMMmmb6e",
"eybmMMmmmmmmmmmMmmmmnbbmMMmmmmmmmmmMmmmmnbbmMMmmmmmmmmmMmmmmnb@x",
"+#bnmmmnnnmmmnnnnnmmnbbnmmmnnnmmmnnnnnmmnbbnmmmnnnmmmnnnnnmmnbtv",
">kbCCmmnCCnnmnCCCnnnCbbCCmmnCCnnmnCCCnnnCbbCCmmnCCnnmnCCCnnnCb21",
"9ghbbbbbbbbbbbbbbbbbbkObbbbbbbbbbbbbbbbbb@6bbbbbbbbbbbbbbbbbb;g#",
"wOabbbbbbbbbbbbbbbbbb-Xbbbbbbbbbbbbbbbbbb<abbbbbbbbbbbbbbbbbb-o*",
" hbnmmMMMMMmmmMMmmmmnbbnmmMMMMMmmmMMmmmmnbbnmmMMMMMmmmMMmmmmnb3O",
"uxbmNBBBBNNNNNNNNNNMmbbmNBBBBNNNNNNNNNNMmbbmNBBBBNNNNNNNNNNMmb48",
"u:bmNBBBBNNNBBBNNNMmmbbmNBBBBNNNBBBNNNMmmbbmNBBBBNNNBBBNNNMmmb*l",
"gfbmMNNNNNNNBBBNNNMmmbbmMNNNNNNNBBBNNNMmmbbmMNNNNNNNBBBNNNMmmbe$",
"OgbMMNNNNNNNBBBNNNMmnbbMMNNNNNNNBBBNNNMmnbbMMNNNNNNNBBBNNNMmnbc&",
"#XbmMNNNNMMMNNMMMMmmmbbmMNNNNMMMNNMMMMmmmbbmMNNNNMMMNNMMMMmmmbt*",
"s:bmMMMMNNMMNNNNNMmmnbbmMMMMNNMMNNNNNMmmnbbmMMMMNNMMNNNNNMmmnb+>",
",ebmMMMMNNMMMMMMMMMmnbbmMMMMNNMMMMMMMMMmnbbmMMMMNNMMMMMMMMMmnbk ",
"qxbmMMmmMMMmmMMMMMMmmbbmMMmmMMMmmMMMMMMmmbbmMMmmMMMmmMMMMMMmmbuk",
"f bmMMmmmmmmmmmMmmmmnbbmMMmmmmmmmmmMmmmmnbbmMMmmmmmmmmmMmmmmnb,h",
"vgbnmmmnnnmmmnnnnnmmnbbnmmmnnnmmmnnnnnmmnbbnmmmnnnmmmnnnnnmmnbv9",
",zbCCmmnCCnnmnCCCnnnCbbCCmmnCCnnmnCCCnnnCbbCCmmnCCnnmnCCCnnnCbsO",
"O<sbbbbbbbbbbbbbbbbbb5obbbbbbbbbbbbbbbbbb1@bbbbbbbbbbbbbbbbbbfkX",
"=lVbbbbbbbbbbbbbbbbbb9xbbbbbbbbbbbbbbbbbb;$bbbbbbbbbbbbbbbbbb4-V",
"9lbnmmMMMMMmmmMMmmmmnbbnmmMMMMMmmmMMmmmmnbbnmmMMMMMmmmMMmmmmnbko",
"VkbmNBBBBNNNNNNNNNNMmbbmNBBBBNNNNNNNNNNMmbbmNBBBBNNNNNNNNNNMmb>r",
"aObmNBBBBNNNBBBNNNMmmbbmNBBBBNNNBBBNNNMmmbbmNBBBBNNNBBBNNNMmmb5j",
"OVbmMNNNNNNNBBBNNNMmmbbmMNNNNNNNBBBNNNMmmbbmMNNNNNNNBBBNNNMmmbkq",
"o9bMMNNNNNNNBBBNNNMmnbbMMNNNNNNNBBBNNNMmnbbMMNNNNNNNBBBNNNMmnbV0",
"2hbmMNNNNMMMNNMMMMmmmbbmMNNNNMMMNNMMMMmmmbbmMNNNNMMMNNMMMMmmmb,.",
"a.bmMMMMNNMMNNNNNMmmnbbmMMMMNNMMNNNNNMmmnbbmMMMMNNMMNNNNNMmmnb;8",
"q:bmMMMMNNMMMMMMMMMmnbbmMMMMNNMMMMMMMMMmnbbmMMMMNNMMMMMMMMMmnb.1",
" -bmMMmmMMMmmMMMMMMmmbbmMMmmMMMmmMMMMMMmmbbmMMmmMMMmmMMMMMMmmbof",
"4<bmMMmmmmmmmmmMmmmmnbbmMMmmmmmmmmmMmmmmnbbmMMmmmmmmmmmMmmmmnbVt",
"%jbnmmmnnnmmmnnnnnmmnbbnmmmnnnmmmnnnnnmmnbbnmmmnnnmmmnnnnnmmnbdt",
"3XbCCmmnCCnnmnCCCnnnCbbCCmmnCCnnmnCCCnnnCbbCCmmnCCnnmnCCCnnnCb%5",
"57+bbbbbbbbbbbbbbbbbb$lbbbbbbbbbbbbbbbbbbV4bbbbbbbbbbbbbbbbbb3zX",
" .vbbbbbbbbbbbbbbbbbb<xbbbbbbbbbbbbbbbbbbtobbbbbbbbbbbbbbbbbb3-c",
"egbnmmMMMMMmmmMMmmmmnbbnmmMMMMMmmmMMmmmmnbbnmmMMMMMmmmMMmmmmnbg*",
"t>bmNBBBBNNNNNNNNNNMmbbmNBBBBNNNNNNNNNNMmbbmNBBBBNNNNNNNNNNMmb7,",
",abmNBBBBNNNBBBNNNMmmbbmNBBBBNNNBBBNNNMmmbbmNBBBBNNNBBBNNNMmmb s",
"h;bmMNNNNNNNBBBNNNMmmbbmMNNNNNNNBBBNNNMmmbbmMNNNNNNNBBBNNNMmmbq9",
"6ObMMNNNNNNNBBBNNNMmnbbMMNNNNNNNBBBNNNMmnbbMMNNNNNNNBBBNNNMmnbxv",
"s;bmMNNNNMMMNNMMMMmmmbbmMNNNNMMMNNMMMMmmmbbmMNNNNMMMNNMMMMmmmb5t",
"$dbmMMMMNNMMNNNNNMmmnbbmMMMMNNMMNNNNNMmmnbbmMMMMNNMMNNNNNMmmnb9q",
"idbmMMMMNNMMMMMMMMMmnbbmMMMMNNMMMMMMMMMmnbbmMMMMNNMMMMMMMMMmnbp>",
"=6bmMMmmMMMmmMMMMMMmmbbmMMmmMMMmmMMMMMMmmbbmMMmmMMMmmMMMMMMmmb,k",
"trbmMMmmmmmmmmmMmmmmnbbmMMmmmmmmmmmMmmmmnbbmMMmmmmmmmmmMmmmmnb+.",
"urbnmmmnnnmmmnnnnnmmnbbnmmmnnnmmmnnnnnmmnbbnmmmnnnmmmnnnnnmmnbqh",
"e0bCCmmnCCnnmnCCCnnnCbbCCmmnCCnnmnCCCnnnCbbCCmmnCCnnmnCCCnnnCbpo",
",d8bbbbbbbbbbbbbbbbbb3ebbbbbbbbbbbbbbbbbb92bbbbbbbbbbbbbbbbbb9@3",
"4plqtk=7zhi:lte,@9lrq:e#zlhz6<uO$kXv3Ooig4,8a%jwv: uV2%%79#j*r: ",
"#ifq-*,=0g u&%g*3jo@g8u.4hXcq&509si%tt-pg:&0h3o;to5i066pg83+8ef7",
".@k73%8x+g:e9kyw.kg-;@9<qt4t-o31.di#444zkzl@gx1 ug# @7i><<&5+ jp",
"u egr5ax :x+rwjx8jsq0@@XdlplVqwVzx@:7q<=h;qgw6h:>vjhd2d#is3.>-jO"
};
